<svg xmlns="http://www.w3.org/2000/svg" xml:space="preserve" width="2000" height="105" data-id="lg_Gd8rAqzpjGKvZxYdAy" data-version="1" viewBox="0 0 2000 105"><g data-padding="20"><g transform="translate(10 1.875)scale(.96429)"><rect width="560" height="105.09" x="346.167" y="-400.445" fill="none" rx="0" ry="0" transform="translate(400.5 400.4)"/><g transform="translate(148.27 396.26)"><linearGradient id="a" x1="0" x2="1" y1="0" y2="0" gradientUnits="objectBoundingBox"><stop offset="0%" stop-color="#ff6cab"/><stop offset="100%" stop-color="#7366ff"/></linearGradient><path fill="url(#a)" d="M787.717 81.71h-22.57q-4.68 0-7.1-1.18-2.43-1.18-3.27-3.86t-.84-7.13V23.86q0-1.32.45-2 2.04-3 5.72-6.31.68-.55 1.18-.55.55 0 1.14.55 2 1.72 3.36 3.29t2.36 3.02q.45.73.45 2v40.28q0 3.04 1.09 4.36 1.09 1.31 4.09 1.31l13.94-.04q1.09 0 1.64.36 1.18.82 2.45 1.95 1.27 1.14 2.68 2.73.45.59.45.95 0 .41-.45.91-1.41 1.59-2.68 2.72-1.27 1.14-2.45 1.96-.64.36-1.64.36" transform="translate(-148.27 -396.25)"/></g><path fill="url(#a)" d="M835.357 81.71h-22.85q-4.67 0-7.1-1.18t-3.27-3.86-.84-7.13V28.76q0-4.54.84-7.2.84-2.65 3.27-3.81t7.1-1.16h21.35q1.09 0 1.63.37 1.18.81 2.45 1.95 1.28 1.13 2.68 2.72.46.59.46.96 0 .4-.46.9-1.4 1.59-2.68 2.73-1.27 1.13-2.45 1.95-.63.36-1.63.36h-12.72q-2.99 0-4.08 1.28-1.09 1.27-1.09 4.36v8.81h16.3q1.09 0 1.63.36 1.18.82 2.46 1.95 1.27 1.14 2.67 2.73.46.59.46.95 0 .41-.46.91-1.4 1.59-2.67 2.72-1.28 1.14-2.46 1.95-.63.37-1.63.37h-16.3v9.17q0 3.04 1.09 4.36t4.08 1.32h14.22q1.09 0 1.63.36 1.18.82 2.45 1.95 1.27 1.14 2.68 2.73.46.59.46.95 0 .41-.46.91-1.41 1.59-2.68 2.72-1.27 1.14-2.45 1.96-.63.36-1.63.36"/><path fill="url(#a)" d="M865.957 34.67V79.3q0 1.37-.52 1.89t-1.84.52h-9.13q-1.27 0-1.81-.52-.55-.52-.55-1.89V21.77q0-2.68 1.05-3.93 1.04-1.25 3.68-1.25h4.22q2.31 0 4.38.61 2.07.62 4.41 2.75 2.33 2.14 5.44 6.61t7.52 12.19q4.22 7.36 6.79 11.76 2.56 4.41 3.97 6.72 1.41 2.32 2.11 3.32.71 1 1.16 1.63V23.86q0-1.32.41-2 1.95-3 5.4-6.31.69-.55 1.14-.55.5 0 1.09.55 1.86 1.72 3.15 3.29 1.3 1.57 2.25 3.02.41.73.41 2v54.08q0 2.04-.77 2.91-.77.86-2.82.86h-4.36q-1.95 0-3.99-.66t-4.63-3q-2.59-2.33-6.13-7.28-3.55-4.95-8.54-13.54-4.22-7.31-6.74-11.62-2.52-4.32-3.84-6.52t-1.91-3.09q-.59-.88-1-1.33" transform="translate(0 .01)"/><path fill="url(#a)" d="M953.377 28.53V79.3q0 1.37-.57 1.89t-1.93.52h-9.67q-1.37 0-1.93-.52-.57-.52-.57-1.89V28.53h-13.53q-1.09 0-1.64-.36-1.18-.82-2.43-1.95-1.25-1.14-2.7-2.73-.45-.59-.45-.95 0-.41.45-.91 1.45-1.59 2.7-2.72 1.25-1.14 2.43-1.95.64-.37 1.64-.37h41.77q1.09 0 1.64.37 1.18.81 2.45 1.95 1.27 1.13 2.68 2.72.45.59.45.96 0 .4-.45.9-1.41 1.59-2.68 2.73-1.27 1.13-2.45 1.95-.64.36-1.64.36Z" transform="translate(.01)"/><path fill="url(#a)" d="M996.107 23.86V79.3q0 1.37-.57 1.89t-1.93.52h-9.67q-1.36 0-1.93-.52t-.57-1.89V23.86q0-1.32.45-2 2.05-3 5.73-6.31.68-.55 1.18-.55.54 0 1.13.55 2 1.72 3.36 3.29t2.36 3.02q.46.73.46 2" transform="translate(-.01 .01)"/><path fill="url(#a)" d="M1037.977 70.58q3.31 0 5.2-.68 1.88-.68 2.92-1.68 1.05-1 1.82-1.99.73-.91 1.2-1.37.48-.45 1.34-.63.73-.23 2.34-.3t3.23-.07q1.61 0 2.24.09.96.05 1.32.37t.46 1.36q.13 1.45.15 3.45.03 2-.06 3.45-.05.46-.16.77-.12.32-.48.96-.45.72-1.77 2.11-1.32 1.38-3.86 2.86t-6.56 2.52q-4.02 1.05-9.88 1.05-6.27 0-11.71-1.62-5.45-1.61-9.56-5.42-4.11-3.82-6.41-10.31-2.29-6.5-2.29-16.21 0-10.81 3.75-18.37 3.74-7.56 10.65-11.51 6.9-3.95 16.34-3.95 6.63 0 10.65 1.36t6.11 3.2 2.95 3.2q.32.5.46.89.13.38.18 1.2.13 1.09.07 3.18-.07 2.09-.35 3.68-.18 1-.59 1.31-.18.19-.63.32-.46.14-1.36.14-1.46 0-3.27-.11-1.82-.12-2.73-.25-1.09-.19-1.59-.53t-1-1.06q-.81-1.18-2.81-2.73-2-1.54-6.59-1.54-6.44 0-10.62 4.97t-4.18 16.1q0 11.08 4.38 16.44 4.38 5.35 10.7 5.35"/><path fill="url(#a)" d="M1096.557 82.8q-8.54 0-14.56-2.23-6.02-2.22-9.17-7.81-3.16-5.58-3.16-15.66V23.86q0-1.32.46-2 2.04-3 5.72-6.31.68-.55 1.18-.55.54 0 1.13.55 2 1.72 3.36 3.29 1.37 1.57 2.37 3.02.45.73.45 2v30.97q0 6.49 1.38 9.87 1.39 3.39 4.11 4.61 2.73 1.23 6.73 1.23 4.08 0 6.81-1.23 2.72-1.22 4.08-4.61 1.37-3.38 1.37-9.87V23.86q0-1.32.45-2 2.04-3 5.72-6.31.68-.55 1.18-.55.55 0 1.14.55 2 1.72 3.36 3.29t2.36 3.02q.45.73.45 2V57.1q0 10.08-3.45 15.66-3.45 5.59-9.51 7.81-6.06 2.23-13.96 2.23" transform="translate(.01)"/><path fill="url(#a)" d="M1171.247 81.71h-22.56q-4.68 0-7.11-1.18t-3.27-3.86-.84-7.13V23.86q0-1.32.45-2 2.05-3 5.73-6.31.68-.55 1.18-.55.54 0 1.13.55 2 1.72 3.36 3.29t2.36 3.02q.46.73.46 2v40.28q0 3.04 1.09 4.36 1.09 1.31 4.08 1.31l13.94-.04q1.09 0 1.64.36 1.18.82 2.45 1.95 1.27 1.14 2.68 2.73.46.59.46.95 0 .41-.46.91-1.41 1.59-2.68 2.72-1.27 1.14-2.45 1.96-.64.36-1.64.36" transform="translate(0 .01)"/><path fill="url(#a)" d="M1219.887 20.18q2.5 3.5 5.11 9.01 2.61 5.52 5.06 12.1 2.45 6.59 4.43 13.47 1.97 6.88 3.25 13.24 1.27 6.35 1.45 11.3.04 2.41-2.18 2.41h-10.99q-2.13 0-2.23-2.13-.18-5.09-1.63-12.36h-24.79q-1.28 7.09-1.46 12.36-.09 2.13-2.31 2.13h-10.77q-.81 0-1.36-.48-.54-.47-.5-1.65.23-5.04 1.48-11.47t3.25-13.33q1.99-6.9 4.45-13.51 2.45-6.6 5.08-12.1 2.64-5.49 5.13-8.99 1.32-1.86 2.8-2.73 1.47-.86 3.65-.86h6.54q2.23 0 3.72.86 1.5.87 2.82 2.73m-9.99 10.76h-.27q-3 4.77-5.5 11.4t-4.31 13.62h19.71q-1.91-6.99-4.41-13.62t-5.22-11.4m54.63 2.54V79.3q0 1.37-.57 1.89t-1.93.52h-9.67q-1.36 0-1.93-.52t-.57-1.89V28.76q0-4.54.84-7.2.84-2.65 3.27-3.81t7.11-1.16h12.03q23.7 0 23.7 18.21 0 5.54-1.86 9.08-1.86 3.55-4.63 5.52-2.77 1.98-5.45 2.98v.22q3.04 2 5.79 5.25 2.75 3.24 4.97 7.04 2.23 3.79 3.77 7.49 1.55 3.7 2.14 6.61.27 1.36.02 2.04t-1.57.68h-10.49q-1.18 0-2.06-.5-.89-.5-1.62-2.32-3.45-8.67-7.94-14.14-4.5-5.47-8.68-8.79-2.67-2.13-2.67-3.04 0-.73.86-2 .54-.77 1.59-1.86 1.04-1.09 1.81-1.63.78-.55 1.25-.69.48-.13 1.48-.13 3.36 0 5.61-2.32 2.24-2.31 2.24-7.31 0-4.72-2.38-6.92-2.38-2.21-6.56-2.21h-2.73q-2.99 0-4.08 1.28-1.09 1.27-1.09 4.35"/></g><path fill="transparent" stroke="transparent" d="M720 0h560v105H720z"/></g></svg>